<svg width="14" height="16" viewBox="0 0 14 16" fill="none" xmlns="http://www.w3.org/2000/svg">
<path d="M11.4757 8.50877C11.4571 6.48741 13.1733 5.50401 13.2518 5.45823C12.2798 4.07658 10.7733 3.88781 10.2439 3.87275C8.97866 3.74293 7.75134 4.61093 7.10681 4.61093C6.44941 4.61093 5.45688 3.8853 4.38716 3.90662C3.0106 3.92732 1.72282 4.70438 1.01654 5.91105C-0.441063 8.37142 0.646026 11.987 2.04252 13.9758C2.74108 14.9498 3.55737 16.0373 4.6258 15.999C5.67108 15.957 6.06153 15.3493 7.32294 15.3493C8.57277 15.3493 8.93942 15.999 10.0291 15.9746C11.1509 15.957 11.8572 14.9962 12.5313 14.0134C13.3386 12.8971 13.6628 11.7976 13.6757 11.7412C13.6493 11.7324 11.497 10.9315 11.4757 8.50877Z" fill="white"/>
<path d="M9.41735 2.56448C9.97955 1.87899 10.3642 0.946394 10.2574 0C9.44373 0.0351213 8.42611 0.548771 7.84011 1.21921C7.32165 1.81 6.85851 2.77835 6.97816 3.68899C7.89221 3.75547 8.83071 3.23932 9.41735 2.56448Z" fill="white"/>
</svg>
