<svg width="30" height="30" viewBox="0 0 30 30" fill="none" xmlns="http://www.w3.org/2000/svg">
<rect width="30" height="30" rx="15" fill="#FE2C0B"/>
<path d="M14.2308 7.30762H12.6924C8.8462 7.30762 7.30774 8.84608 7.30774 12.6922V17.3076C7.30774 21.1538 8.8462 22.6922 12.6924 22.6922H17.3077C21.1539 22.6922 22.6924 21.1538 22.6924 17.3076V15.7692" stroke="white" stroke-width="1.15385" stroke-linecap="round" stroke-linejoin="round"/>
<path d="M18.1078 8.09213L12.0463 14.1537C11.8155 14.3844 11.5848 14.8383 11.5386 15.169L11.2078 17.4844C11.0848 18.3229 11.6771 18.9075 12.5155 18.7921L14.8309 18.4614C15.154 18.4152 15.6078 18.1844 15.8463 17.9537L21.9078 11.8921C22.954 10.846 23.4463 9.63059 21.9078 8.09213C20.3694 6.55366 19.154 7.04597 18.1078 8.09213Z" stroke="white" stroke-width="1.15385" stroke-miterlimit="10" stroke-linecap="round" stroke-linejoin="round"/>
<path d="M17.2384 8.96143C17.7538 10.7999 19.1922 12.2383 21.0384 12.7614" stroke="white" stroke-width="1.15385" stroke-miterlimit="10" stroke-linecap="round" stroke-linejoin="round"/>
</svg>
