<svg width="16" height="16" viewBox="0 0 16 16" fill="none" xmlns="http://www.w3.org/2000/svg">
<path d="M15.7276 8.17796C15.7276 7.63353 15.6838 7.0891 15.5962 6.55579H8.1601V9.63347H12.4202C12.245 10.6223 11.6755 11.5112 10.8432 12.0667V14.0667H13.384C14.8734 12.6778 15.7276 10.6223 15.7276 8.17796Z" fill="#4285F4"/>
<path d="M8.16044 16C10.285 16 12.0811 15.289 13.3843 14.0668L10.8436 12.0668C10.1317 12.5557 9.22274 12.8335 8.16044 12.8335C6.10155 12.8335 4.36025 11.4224 3.73601 9.53357H1.11859V11.6002C2.45468 14.3001 5.18162 16 8.16044 16Z" fill="#34A853"/>
<path d="M3.73632 9.53356C3.40772 8.54471 3.40772 7.46696 3.73632 6.46699V4.4115H1.11848C-0.00970858 6.66699 -0.00970858 9.33357 1.11848 11.5891L3.73632 9.53356Z" fill="#FBBC04"/>
<path d="M8.16044 3.16706C9.28845 3.14483 10.3727 3.57815 11.1831 4.36702L13.4391 2.0782C12.0044 0.722684 10.1208 -0.021738 8.16044 0.000483552C5.18162 0.000483552 2.45468 1.71154 1.11859 4.41146L3.73601 6.47807C4.36025 4.57812 6.10155 3.16706 8.16044 3.16706Z" fill="#EA4335"/>
</svg>
