<svg width="24" height="24" viewBox="0 0 24 24" fill="none" xmlns="http://www.w3.org/2000/svg">
  <path d="M22.56 12.25C22.56 11.47 22.49 10.72 22.36 10H12V14.26H17.92C17.66 15.63 16.9 16.79 15.76 17.57V20.34H19.24C21.36 18.42 22.56 15.6 22.56 12.25Z" fill="#4285F4"/>
  <path d="M12 23C15.24 23 17.95 21.87 19.24 20.34L15.76 17.57C14.76 18.2 13.48 18.58 12 18.58C8.87 18.58 6.22 16.58 5.36 13.85H1.83V16.66C3.15 19.24 7.35 23 12 23Z" fill="#34A853"/>
  <path d="M5.36 13.85C5.12 13.15 5 12.4 5 11.62C5 10.84 5.12 10.09 5.36 9.39V6.58H1.83C1.01 8.15 0.5 9.9 0.5 11.62C0.5 13.34 1.01 15.09 1.83 16.66L5.36 13.85Z" fill="#FBBC05"/>
  <path d="M12 5.38C13.62 5.38 15.06 5.94 16.21 7.02L19.31 3.92C17.95 2.66 15.24 1.5 12 1.5C7.35 1.5 3.15 5.26 1.83 7.84L5.36 10.65C6.22 7.92 8.87 5.92 12 5.92V5.38Z" fill="#EA4335"/>
</svg>
