<svg width="14" height="13" viewBox="0 0 14 13" fill="none" xmlns="http://www.w3.org/2000/svg">
<path d="M7.64167 0C6.23101 0.00686571 4.86249 0.481496 3.7505 1.34953C2.63852 2.21756 1.8459 3.42995 1.49683 4.79675L1.06983 4.151C1.02941 4.08339 0.975711 4.02467 0.911978 3.97838C0.848245 3.93209 0.775797 3.89919 0.699003 3.88166C0.622209 3.86413 0.54266 3.86233 0.465153 3.87638C0.387645 3.89042 0.313786 3.92002 0.248028 3.96339C0.18227 4.00675 0.125976 4.06299 0.0825403 4.1287C0.0391051 4.19441 0.00942841 4.26824 -0.00470008 4.34573C-0.0188286 4.42323 -0.0171162 4.50278 0.000333865 4.57959C0.0177839 4.6564 0.05061 4.72888 0.0968328 4.79267L1.38017 6.7375C1.46931 6.86224 1.60074 6.95035 1.75 6.98542C1.90241 7.01565 2.0606 6.98531 2.191 6.90083L4.116 5.60408C4.18237 5.56264 4.23973 5.50826 4.28465 5.44419C4.32957 5.38012 4.36114 5.30766 4.37749 5.23114C4.39383 5.15461 4.39461 5.07558 4.37978 4.99875C4.36495 4.92192 4.33482 4.84886 4.29117 4.78391C4.24752 4.71897 4.19125 4.66347 4.12571 4.62072C4.06017 4.57797 3.9867 4.54884 3.90967 4.53507C3.83264 4.5213 3.75362 4.52317 3.67733 4.54057C3.60104 4.55796 3.52903 4.59053 3.46558 4.63633L2.59 5.22667C2.82303 4.28073 3.31726 3.41934 4.0163 2.74077C4.71534 2.06221 5.59104 1.5938 6.54348 1.38898C7.49593 1.18417 8.48677 1.2512 9.40296 1.58242C10.3191 1.91365 11.1238 2.49573 11.7251 3.26226C12.3263 4.02879 12.7001 4.94889 12.8036 5.9176C12.9071 6.8863 12.7362 7.8646 12.3105 8.74087C11.8847 9.61714 11.2212 10.3561 10.3957 10.8734C9.57019 11.3907 8.61589 11.6656 7.64167 11.6667C6.80653 11.6644 5.98429 11.4605 5.24484 11.0724C4.50538 10.6842 3.87059 10.1233 3.39442 9.43717C3.35177 9.37168 3.2964 9.31543 3.23159 9.27176C3.16679 9.22809 3.09387 9.19788 3.01716 9.18293C2.94046 9.16799 2.86153 9.16861 2.78507 9.18476C2.70861 9.2009 2.63617 9.23225 2.57206 9.27693C2.50795 9.32161 2.45347 9.37873 2.41185 9.44487C2.37024 9.51102 2.34234 9.58485 2.32981 9.66199C2.31728 9.73912 2.32038 9.81799 2.33892 9.89391C2.35747 9.96982 2.39107 10.0412 2.43775 10.1039C3.21187 11.2199 4.32357 12.0582 5.60946 12.4955C6.89534 12.9328 8.2876 12.9461 9.58161 12.5335C10.8756 12.1208 12.0031 11.3039 12.7984 10.2029C13.5937 9.1019 14.0149 7.7748 14 6.41667C14.0057 4.7232 13.3396 3.09659 12.1476 1.89367C10.9556 0.690741 9.33512 0.00972201 7.64167 0Z" fill="white"/>
<path d="M7.58333 2.88745C7.42862 2.88745 7.28025 2.94891 7.17085 3.05831C7.06146 3.1677 7 3.31607 7 3.47078V6.41662C7.00248 6.57082 7.0636 6.71828 7.17092 6.82903L8.92092 8.59479C9.03073 8.70287 9.17842 8.76379 9.3325 8.76455C9.48658 8.76531 9.63487 8.70586 9.74575 8.59887C9.85557 8.48994 9.91764 8.34186 9.91829 8.18718C9.91895 8.0325 9.85814 7.88389 9.74925 7.77403L8.16667 6.17687V3.47078C8.16667 3.31607 8.10521 3.1677 7.99581 3.05831C7.88642 2.94891 7.73804 2.88745 7.58333 2.88745Z" fill="white"/>
</svg>
