<svg width="24" height="24" viewBox="0 0 24 24" fill="none" xmlns="http://www.w3.org/2000/svg">
  <path d="M12 14C13.66 14 15 12.66 15 11V5C15 3.34 13.66 2 12 2C10.34 2 9 3.34 9 5V11C9 12.66 10.34 14 12 14Z" fill="currentColor"/>
  <path d="M17 11C17 14.31 14.31 17 11 17H13C16.31 17 19 14.31 19 11H17Z" fill="currentColor"/>
  <path d="M11 19H13V22H11V19Z" fill="currentColor"/>
  <path d="M7 11H5C5 14.31 7.69 17 11 17V19C6.58 19 3 15.42 3 11H5C5 13.76 7.24 16 10 16C12.76 16 15 13.76 15 11H13C13 12.66 12.16 13.5 11 13.5C9.84 13.5 9 12.66 9 11H7Z" fill="currentColor"/>
</svg>
