<svg width="16" height="16" viewBox="0 0 16 16" fill="none" xmlns="http://www.w3.org/2000/svg">
<path d="M8 4.29321V6.51321" stroke="white" stroke-miterlimit="10" stroke-linecap="round"/>
<path d="M8.01327 1.33325C5.55993 1.33325 3.57327 3.31992 3.57327 5.77325V7.17325C3.57327 7.62659 3.3866 8.30659 3.15327 8.69325L2.3066 10.1066C1.7866 10.9799 2.1466 11.9533 3.1066 12.2733C6.29327 13.3333 9.73993 13.3333 12.9266 12.2733C13.8266 11.9733 14.2133 10.9199 13.7266 10.1066L12.8799 8.69325C12.6466 8.30659 12.4599 7.61992 12.4599 7.17325V5.77325C12.4533 3.33325 10.4533 1.33325 8.01327 1.33325Z" stroke="white" stroke-miterlimit="10" stroke-linecap="round"/>
<path d="M10.2198 12.5466C10.2198 13.7666 9.21979 14.7666 7.99979 14.7666C7.39312 14.7666 6.83312 14.5133 6.43312 14.1133C6.03312 13.7133 5.77979 13.1533 5.77979 12.5466" stroke="white" stroke-miterlimit="10"/>
</svg>
