<svg width="15" height="15" viewBox="0 0 15 15" fill="none" xmlns="http://www.w3.org/2000/svg">
<path d="M13.6226 4.71636L6.12256 12.2164C6.05723 12.2819 5.97961 12.3339 5.89415 12.3694C5.80868 12.4049 5.71705 12.4232 5.62451 12.4232C5.53197 12.4232 5.44034 12.4049 5.35487 12.3694C5.26941 12.3339 5.19179 12.2819 5.12646 12.2164L1.84521 8.93511C1.77981 8.8697 1.72793 8.79206 1.69253 8.7066C1.65713 8.62115 1.63892 8.52956 1.63892 8.43706C1.63892 8.34456 1.65713 8.25297 1.69253 8.16752C1.72793 8.08206 1.77981 8.00442 1.84521 7.93901C1.91062 7.87361 1.98826 7.82173 2.07372 7.78633C2.15917 7.75093 2.25076 7.73271 2.34326 7.73271C2.43576 7.73271 2.52735 7.75093 2.6128 7.78633C2.69826 7.82173 2.7759 7.87361 2.84131 7.93901L5.6251 10.7228L12.6276 3.72143C12.7597 3.58934 12.9389 3.51514 13.1257 3.51514C13.3125 3.51514 13.4916 3.58934 13.6237 3.72143C13.7558 3.85352 13.83 4.03268 13.83 4.21948C13.83 4.40629 13.7558 4.58544 13.6237 4.71753L13.6226 4.71636Z" fill="#FE2C0B"/>
</svg>
